Coordinates
version=1
nRows=39
nColumns=6
inDegrees=yes

Units are S.I. units (second, meters, Newtons, ...)
If the header above contains a line with 'inDegrees', this indicates whether rotational values are in degrees (yes) or radians (no).

endheader
time	bJoint_3	bJoint_4	baseangle	kneeangle	bladeangle
      0.00000000	     -0.00000000	      0.00000000	      7.39458336	    -54.09593128	     46.70135190
      0.02000000	      0.00000000	      0.00000000	      4.74604403	    -51.72034494	     46.97455359
      0.04000000	      0.00000000	      0.00000000	      2.24251157	    -49.36607863	     47.12362285
      0.06000000	     -0.00000000	     -0.00000000	     -0.13714098	    -47.02929838	     47.16699541
      0.08000000	      0.00000000	      0.00000000	     -2.41783435	    -44.69875213	     47.11682565
      0.10000000	      0.00000000	     -0.00000000	     -4.61211115	    -42.37259246	     46.98034057
      0.12000000	     -0.00000000	     -0.00000000	     -6.73370976	    -40.04668077	     46.78014789
      0.14000000	      0.00000000	      0.00000000	     -8.79292142	    -37.71737611	     46.51006580
      0.16000000	      0.00000000	      0.00000000	    -10.79929602	    -35.38132811	     46.18014870
      0.18000000	     -0.00000000	     -0.00000000	    -12.75851096	    -33.03829101	     45.79497936
      0.20000000	      0.00000000	      0.00000000	    -14.68266985	    -30.67949065	     45.36091200
      0.22000000	      0.00000000	      0.00000000	    -16.57550630	    -28.30491818	     44.87995904
      0.24000000	     -0.00000000	     -0.00000000	    -18.44255328	    -25.91171423	     44.35238592
      0.26000000	      0.00000000	     -0.00000000	    -20.28921685	    -23.49694788	     43.78518258
      0.28000000	     -0.00000000	     -0.00000000	    -22.11782088	    -21.06070330	     43.17761198
      0.30000000	     -0.00000000	     -0.00000000	    -23.93731933	    -18.59392906	     42.52967000
      0.32000000	     -0.00000000	     -0.00000000	    -25.74980875	    -16.09636949	     41.84606690
      0.34000000	     -0.00000000	     -0.00000000	    -27.55922610	    -13.56460967	     41.12379525
      0.36000000	     -0.00000000	     -0.00000000	    -29.36963928	    -10.99495049	     40.36442404
      0.38000000	     -0.00000000	     -0.00000000	    -31.18281924	     -8.38662424	     39.56930326
      0.40000000	     -0.00000000	     -0.00000000	    -33.00727751	     -5.72881708	     38.73594900
      0.42000000	     -0.00000000	     -0.00000000	    -34.84499677	     -3.01981741	     37.86479724
      0.44000000	     -0.00000000	     -0.00000000	    -36.70039787	     -0.25412919	     36.95449934
      0.46000000	     -0.00000000	     -0.00000000	    -38.57821991	      2.57445725	     36.00373025
      0.48000000	      0.00000000	     -0.00000000	    -40.48363406	      5.47305843	     35.01054259
      0.50000000	      0.00000000	     -0.00000000	    -42.41998471	      8.44620880	     33.97374462
      0.52000000	      0.00000000	     -0.00000000	    -44.39852687	     11.51085507	     32.88764856
      0.54000000	     -0.00000000	     -0.00000000	    -46.42440689	     14.67485092	     31.74955102
      0.56000000	     -0.00000000	     -0.00000000	    -45.90692875	     14.98404726	     30.92274786
      0.58000000	      0.00000000	     -0.00000000	    -45.40931927	     15.31942375	     30.08984003
      0.60000000	      0.00000000	     -0.00000000	    -44.93178485	     15.68112648	     29.24941242
      0.62000000	     -0.00000000	     -0.00000000	    -44.21280521	     15.66873527	     28.54115818
      0.64000000	     -0.00000000	      0.00000000	    -43.24744256	     15.28229626	     27.96514659
      0.66000000	     -0.00000000	      0.00000000	    -42.29568536	     14.92226683	     27.37341924
      0.68000000	     -0.00000000	     -0.00000000	    -42.03280265	     14.52682984	     27.50597301
      0.70000000	      0.00000000	     -0.00000000	    -41.07460352	     13.08985823	     27.98474497
      0.72000000	      0.00000000	     -0.00000000	    -40.12867790	     11.67818244	     28.45049507
      0.74000000	      0.00000000	     -0.00000000	    -39.18905981	     10.28288194	     28.90623360
      0.76000000	      0.00000000	     -0.00000000	    -38.25761017	      8.90674401	     29.35091349
